<?xml version="1.0" encoding="UTF-8" standalone="no"?>
<svg width="300px" height="300px" viewBox="0 0 300 300" version="1.1" xmlns="http://www.w3.org/2000/svg" xmlns:xlink="http://www.w3.org/1999/xlink">
    <!-- Generator: Sketch 50.2 (55047) - http://www.bohemiancoding.com/sketch -->
    <title>005-dining-table</title>
    <desc>Created with Sketch.</desc>
    <defs>
        <polygon id="path-1" points="0.272987691 0.557134238 266.162998 0.557134238 266.162998 91.1336551 0.272987691 91.1336551"></polygon>
        <polygon id="path-3" points="0.0328125 0 280 0 280 134.443212 0.0328125 134.443212"></polygon>
    </defs>
    <g id="005-dining-table" stroke="none" stroke-width="1" fill="none" fill-rule="evenodd">
        <g id="Group" transform="translate(10.000000, 41.000000)">
            <g id="Group-3" transform="translate(5.813149, 127.832579)">
                <mask id="mask-2" fill="white">
                    <use xlink:href="#path-1"></use>
                </mask>
                <g id="Clip-2"></g>
                <path d="M262.068183,0.557134238 C259.806207,0.557134238 257.973368,2.43450779 257.973368,4.75027283 L257.973368,46.4014034 L206.105707,46.4014034 L206.105707,4.75027283 C206.105707,2.43450779 204.272867,0.557134238 202.010891,0.557134238 C199.748915,0.557134238 197.916076,2.43450779 197.916076,4.75027283 L197.916076,86.9742822 C197.916076,89.2900473 199.748915,91.1674208 202.010891,91.1674208 C204.272867,91.1674208 206.105707,89.2900473 206.105707,86.9742822 L206.105707,54.7876806 L257.973368,54.7876806 L257.973368,86.9742822 C257.973368,89.2900473 259.806207,91.1674208 262.068183,91.1674208 C264.330159,91.1674208 266.162998,89.2900473 266.162998,86.9742822 L266.162998,4.75027283 C266.162998,2.43450779 264.330159,0.557134238 262.068183,0.557134238 Z M68.5199104,4.75027283 L68.5199104,86.9742822 C68.5199104,89.2900473 66.687071,91.1674208 64.425095,91.1674208 C62.163119,91.1674208 60.3302797,89.2900473 60.3302797,86.9742822 L60.3302797,54.7876806 L8.46261841,54.7876806 L8.46261841,86.9742822 C8.46261841,89.2900473 6.62977906,91.1674208 4.36780305,91.1674208 C2.10582705,91.1674208 0.272987691,89.2900473 0.272987691,86.9742822 L0.272987691,4.75027283 C0.272987691,2.43450779 2.10582705,0.557134238 4.36780305,0.557134238 C6.62977906,0.557134238 8.46261841,2.43450779 8.46261841,4.75027283 L8.46261841,46.4014034 L60.3302797,46.4014034 L60.3302797,4.75027283 C60.3302797,2.43450779 62.163119,0.557134238 64.425095,0.557134238 C66.687071,0.557134238 68.5199104,2.43450779 68.5199104,4.75027283 Z" id="Fill-1" fill="#98A8B9" mask="url(#mask-2)"></path>
            </g>
            <path d="M151.141869,212.260901 C151.141869,213.793545 149.894536,215.036199 148.356401,215.036199 L131.643599,215.036199 C130.105464,215.036199 128.858131,213.793545 128.858131,212.260901 L128.858131,75.1146651 C128.858131,73.5820208 130.105464,72.3393665 131.643599,72.3393665 L148.356401,72.3393665 C149.894536,72.3393665 151.141869,73.5820208 151.141869,75.1146651 L151.141869,212.260901 Z" id="Fill-4" fill="#98A8B9"></path>
            <path d="M272.418488,122.811996 L206.725181,122.811996 C205.213687,122.811996 203.98796,124.061035 203.98796,125.601554 L203.98796,147.919141 C203.98796,149.45966 205.213687,150.708699 206.725181,150.708699 L272.418488,150.708699 C273.929982,150.708699 275.155709,149.45966 275.155709,147.919141 L275.155709,125.601554 C275.155709,124.061035 273.929982,122.811996 272.418488,122.811996 Z M74.2436774,122.811996 L8.55036993,122.811996 C7.03887642,122.811996 5.81314879,124.061035 5.81314879,125.601554 L5.81314879,147.919141 C5.81314879,149.45966 7.03887642,150.708699 8.55036993,150.708699 L74.2436774,150.708699 C75.7551709,150.708699 76.9808985,149.45966 76.9808985,147.919141 L76.9808985,125.601554 C76.9808985,124.061035 75.7551709,122.811996 74.2436774,122.811996 Z M167.309196,198.173305 L113.659662,198.173305 C105.496174,198.173305 98.8786677,204.917778 98.8786677,213.237591 C98.8786677,214.77811 100.104395,216.027149 101.615889,216.027149 L179.352969,216.027149 C180.864463,216.027149 182.09019,214.77811 182.09019,213.237591 C182.09019,204.917778 175.472685,198.173305 167.309196,198.173305 Z M198.513517,64.2284719 L198.513517,80.9669427 C198.513517,82.5074616 197.28779,83.7565006 195.776296,83.7565006 L85.192562,83.7565006 C83.6810684,83.7565006 82.4553408,82.5074616 82.4553408,80.9669427 L82.4553408,64.2284719 C82.4553408,62.687953 83.6810684,61.438914 85.192562,61.438914 L195.776296,61.438914 C197.28779,61.438914 198.513517,62.687953 198.513517,64.2284719 Z" id="Fill-5" fill="#778495"></path>
            <path d="M197.647059,64.16389 L197.647059,80.514843 C197.647059,82.0196969 196.41585,83.239819 194.897597,83.239819 L177.301038,83.239819 C178.819291,83.239819 180.0505,82.0196969 180.0505,80.514843 L180.0505,64.16389 C180.0505,62.6590361 178.819291,61.438914 177.301038,61.438914 L194.897597,61.438914 C196.41585,61.438914 197.647059,62.6590361 197.647059,64.16389" id="Fill-6" fill="#636E8C"></path>
            <path d="M52.140326,64.4117647 C50.6336145,64.4117647 49.4117647,63.1834133 49.4117647,61.6686844 L49.4117647,45.35394 C49.4117647,43.8392111 50.6336145,42.6108597 52.140326,42.6108597 L227.859674,42.6108597 C229.366386,42.6108597 230.588235,43.8392111 230.588235,45.35394 L230.588235,61.6686844 C230.588235,63.183962 229.366386,64.4117647 227.859674,64.4117647 L52.140326,64.4117647 Z" id="Fill-7" fill="#D19D7A"></path>
            <g id="Group-12">
                <mask id="mask-4" fill="white">
                    <use xlink:href="#path-3"></use>
                </mask>
                <g id="Clip-9"></g>
                <path d="M230.78125,44.9995021 L230.78125,61.66615 C230.78125,63.2000587 229.556797,64.4437383 228.046875,64.4437383 L211.640625,64.4437383 C213.150547,64.4437383 214.375,63.2000587 214.375,61.66615 L214.375,44.9995021 C214.375,43.4655934 213.150547,42.2219138 211.640625,42.2219136 L228.046875,42.2219138 C229.556797,42.2213546 230.78125,43.4650342 230.78125,44.9995021" id="Fill-8" fill="#BC8D70" mask="url(#mask-4)"></path>
                <path d="M277.265625,0 C266.694531,0 258.125,8.70519757 258.125,19.4442362 L258.125,112.220829 L203.4375,112.220829 C198.907188,112.220829 195.234375,115.951867 195.234375,120.554153 L195.234375,126.109888 C195.234375,130.712174 198.907188,134.443212 203.4375,134.443212 L271.796875,134.443212 C276.327188,134.443212 280,130.712174 280,126.109888 L280,2.77758825 C280,1.24367954 278.775547,0 277.265625,0 Z M84.765625,120.553593 L84.765625,126.109329 C84.765625,130.711614 81.0928125,134.442653 76.5625,134.442653 L8.203125,134.442653 C3.6728125,134.442653 0,130.711614 0,126.109329 L0,2.77758825 C0,1.24367954 1.22445313,0 2.734375,0 C13.3054688,0 21.875,8.70519757 21.875,19.4442362 L21.875,112.220829 L76.5625,112.220829 C81.0928125,112.220269 84.765625,115.951308 84.765625,120.553593 Z" id="Fill-10" fill="#D6654C" mask="url(#mask-4)"></path>
                <path d="M76.5625,112.220269 L63.1640625,112.220269 C67.694375,112.220269 71.3671875,115.951308 71.3671875,120.553593 L71.3671875,126.109329 C71.3671875,130.711614 67.694375,134.442653 63.1640625,134.442653 L76.5625,134.442653 C81.0928125,134.442653 84.765625,130.711614 84.765625,126.109329 L84.765625,120.553593 C84.765625,115.951308 81.0928125,112.220269 76.5625,112.220269 Z M277.265625,-4.83127773e-15 C273.317734,-4.83127773e-15 269.649297,1.21515991 266.601563,3.29597447 L266.601563,126.10877 C266.601563,130.711055 262.92875,134.442094 258.398438,134.442094 L271.796875,134.442094 C276.327188,134.442094 280,130.711055 280,126.10877 L280,2.77758825 C280,1.24367954 278.775547,-4.83127773e-15 277.265625,-4.83127773e-15 Z M21.875,19.4442362 L21.875,112.220829 L19.4140625,112.220829 C13.3732813,112.220829 8.4765625,107.24611 8.4765625,101.109916 L8.4765625,19.4442362 C8.4765625,12.7163996 5.1121875,6.78711267 0,3.29597447 L0,2.77758825 C0,1.2274625 1.25070313,-0.00335525008 2.77648438,4.79178508e-10 C13.3284375,0.022927546 21.875,8.71973699 21.875,19.4442362 Z" id="Fill-11" fill="#9C5949" mask="url(#mask-4)"></path>
            </g>
        </g>
    </g>
</svg>