<?xml version="1.0" encoding="UTF-8" standalone="no"?>
<svg width="300px" height="300px" viewBox="0 0 300 300" version="1.1" xmlns="http://www.w3.org/2000/svg" xmlns:xlink="http://www.w3.org/1999/xlink">
    <!-- Generator: Sketch 50.2 (55047) - http://www.bohemiancoding.com/sketch -->
    <title>009-food</title>
    <desc>Created with Sketch.</desc>
    <defs>
        <polygon id="path-1" points="0.0326785714 0 244 0 244 139.490909 0.0326785714 139.490909"></polygon>
    </defs>
    <g id="009-food" stroke="none" stroke-width="1" fill="none" fill-rule="evenodd">
        <g id="Group-3" transform="translate(10.000000, 10.000000)">
            <g id="Group-2" transform="translate(101.000000, 0.000000)">
                <path d="M157.698202,66.5763816 C156.885958,65.6756746 155.739701,65.1636364 154.539294,65.1636364 L17.2887105,65.1636364 C16.103852,65.1636364 14.9715347,65.6625734 14.1608984,66.5425368 C13.3502621,67.4219544 12.933149,68.6043369 13.0087441,69.8085548 L25.8759863,275.060564 C26.0196705,277.360369 27.8934627,279.149774 30.1559528,279.149774 L137.382971,279.149774 C139.610613,279.149774 141.467785,277.412774 141.65704,275.153364 L158.813363,69.901355 C158.914693,68.6829441 158.510447,67.4770885 157.698202,66.5763816" id="Fill-1" fill="#EDE1DA"></path>
                <path d="M157.698202,66.5763816 C156.885958,65.6756746 155.739701,65.1636364 154.539294,65.1636364 L17.2887105,65.1636364 C16.103852,65.1636364 14.9715347,65.6625734 14.1608984,66.5425368 C13.3502621,67.4219544 12.933149,68.6043369 13.0087441,69.8085548 L25.8759863,275.060564 C26.0196705,277.360369 27.8934627,279.149774 30.1559528,279.149774 L137.382971,279.149774 C139.610613,279.149774 141.467785,277.412774 141.65704,275.153364 L158.813363,69.901355 C158.914693,68.6829441 158.510447,67.4770885 157.698202,66.5763816" id="Fill-2" fill="#EDE1DA"></path>
                <path d="M38.7426924,275.06111 L25.8754502,69.8091007 C25.7998551,68.6048828 26.2169682,67.4225002 27.0276045,66.5430827 C27.8387769,65.6625734 28.9710942,65.1636364 30.1559528,65.1636364 L17.2887105,65.1636364 C16.103852,65.1636364 14.9715347,65.6625734 14.1608984,66.5425368 C13.3502621,67.4219544 12.933149,68.6043369 13.0087441,69.8085548 L25.8759863,275.060564 C26.0196705,277.360369 27.8934627,279.149774 30.1559528,279.149774 L43.023195,279.149774 C40.7601688,279.149774 38.8869128,277.360369 38.7426924,275.06111" id="Fill-3" fill="#DCCAC2"></path>
                <path d="M15.9724989,117.089119 L66.9707412,65.1636364 L17.2887105,65.1636364 C16.103852,65.1636364 14.9715347,65.6625734 14.1608984,66.5425368 C13.3502621,67.4219544 12.933149,68.6043369 13.0087441,69.8085548 L15.9724989,117.089119" id="Fill-4" fill="#E05862"></path>
                <path d="M158.431045,69.901355 C158.532375,68.68349 158.128665,67.4776344 157.315884,66.5763816 C156.50364,65.6756746 155.357383,65.1636364 154.156976,65.1636364 L123.418743,65.1636364 L19,171.480902 L22.7100548,230.661716 L156.36907,94.5730832 L158.431045,69.901355" id="Fill-5" fill="#E05862"></path>
                <path d="M27.0276045,66.5425368 C27.8387769,65.6625734 28.9710942,65.1636364 30.1559528,65.1636364 L17.2887105,65.1636364 C16.103852,65.1636364 14.9715347,65.6625734 14.1608984,66.5425368 C13.3502621,67.4219544 12.933149,68.6043369 13.0087441,69.8085548 L15.9724989,117.088574 L28.0677066,104.773453 L25.8754502,69.808009 C25.7998551,68.6048828 26.2169682,67.4225002 27.0276045,66.5425368" id="Fill-6" fill="#DD424C"></path>
                <path d="M158.175,47.8545455 L12.825,47.8545455 C5.75308125,47.8545455 0,53.5643182 0,60.5818182 C0,67.5993182 5.75308125,73.3090909 12.825,73.3090909 L158.175,73.3090909 C165.246384,73.3090909 171,67.5993182 171,60.5818182 C171,53.5643182 165.246384,47.8545455 158.175,47.8545455" id="Fill-8" fill="#DCCAC2"></path>
                <path d="M12.5,60.5818182 C12.5,53.5643182 18.1072917,47.8545455 25,47.8545455 L12.5,47.8545455 C5.60729167,47.8545455 0,53.5643182 0,60.5818182 C0,67.5993182 5.60729167,73.3090909 12.5,73.3090909 L25,73.3090909 C18.1072917,73.3090909 12.5,67.5993182 12.5,60.5818182" id="Fill-9" fill="#CEB9B1"></path>
                <path d="M136.5,24.7757576 C134.202604,24.7757576 132.333333,26.6790152 132.333333,29.0181818 C132.333333,31.3573485 134.202604,33.2606061 136.5,33.2606061 C138.797396,33.2606061 140.666667,31.3573485 140.666667,29.0181818 C140.666667,26.6790152 138.797396,24.7757576 136.5,24.7757576 Z M136.5,41.7454545 C129.607292,41.7454545 124,36.0356818 124,29.0181818 C124,22.0006818 129.607292,16.2909091 136.5,16.2909091 C143.392188,16.2909091 149,22.0006818 149,29.0181818 C149,36.0356818 143.392188,41.7454545 136.5,41.7454545 Z" id="Fill-11" fill="#B3948E"></path>
                <path d="M68.5,8.48484848 C66.2026042,8.48484848 64.3333333,10.3881061 64.3333333,12.7272727 C64.3333333,15.0664394 66.2026042,16.969697 68.5,16.969697 C70.7973958,16.969697 72.6666667,15.0664394 72.6666667,12.7272727 C72.6666667,10.3881061 70.7973958,8.48484848 68.5,8.48484848 Z M68.5,25.4545455 C61.6072917,25.4545455 56,19.7447727 56,12.7272727 C56,5.70977273 61.6072917,0 68.5,0 C75.3927083,0 81,5.70977273 81,12.7272727 C81,19.7447727 75.3927083,25.4545455 68.5,25.4545455 Z" id="Fill-12" fill="#B3948E"></path>
                <path d="M107.281343,30.1039619 C105.504055,30.1039619 103.877421,28.9434146 103.260866,27.2484479 C102.63466,25.5278247 103.162217,23.5227964 104.560457,22.3595197 C105.930818,21.219716 107.92256,21.0586805 109.448401,21.9703051 C110.979603,22.885205 111.819726,24.7231931 111.501798,26.506047 C111.135618,28.5596589 109.335276,30.1039619 107.281343,30.1039619" id="Fill-13" fill="#905F5C"></path>
                <path d="M39.2822332,31.1224917 C37.5060176,31.1224917 35.8734862,29.9630362 35.2596115,28.2675236 C34.6478814,26.5774698 35.1400534,24.6002815 36.4954029,23.4331837 C37.8963239,22.2267822 39.9540104,22.055375 41.5216694,23.0325055 C43.0351788,23.9757914 43.8367008,25.8356148 43.4876768,27.6091887 C43.0904007,29.6256805 41.3050709,31.1224917 39.2822332,31.1224917" id="Fill-14" fill="#905F5C"></path>
                <path d="M78.2818043,49.4494162 C76.5039803,49.4494162 74.8735935,48.2921442 74.2591827,46.594448 C73.6367299,44.8749166 74.1605339,42.8660671 75.5609187,41.7060657 C76.9420027,40.5624409 78.9112269,40.4057724 80.4504708,41.3163053 C81.983281,42.2224711 82.8191156,44.0768356 82.5022598,45.8520472 C82.1360795,47.9067508 80.3378824,49.4494162 78.2818043,49.4494162" id="Fill-15" fill="#905F5C"></path>
            </g>
            <g id="Group" transform="translate(0.000000, 140.509091)">
                <path d="M245.438565,51.8172727 C223.151315,29.5643636 193.518565,17.3090909 162,17.3090909 C130.480889,17.3090909 100.848685,29.5643636 78.5614352,51.8172727 C56.2741852,74.0707273 44,103.657273 44,135.127273 C44,137.537091 45.9568333,139.490909 48.3703704,139.490909 L183.851852,130.763636 L236.296296,139.490909 L275.62963,139.490909 C278.043167,139.490909 280,137.537091 280,135.127273 C280,103.657273 267.725815,74.0707273 245.438565,51.8172727" id="Fill-16" fill="#E5743F"></path>
                <g id="Group-21">
                    <mask id="mask-2" fill="white">
                        <use xlink:href="#path-1"></use>
                    </mask>
                    <g id="Clip-18"></g>
                    <path d="M229.90083,72.6704045 C230.583812,70.3208545 230.928571,67.8841227 230.928571,65.3863636 C230.928571,50.9643114 219.201321,39.2318182 204.785714,39.2318182 C204.785714,24.8097659 193.058464,13.0772727 178.642857,13.0772727 C176.146214,13.0772727 173.710571,13.4221858 171.362071,14.1054733 C166.937937,5.51370511 158.097295,0 148.142857,0 C138.18842,0 129.347777,5.51370511 124.924187,14.1054733 C122.574598,13.4221858 120.1395,13.0772727 117.642857,13.0772727 C103.227795,13.0772727 91.5,24.8097659 91.5,39.2318182 C77.0849375,39.2318182 65.3571429,50.9643114 65.3571429,65.3863636 C65.3571429,67.8841227 65.7013571,70.3208545 66.3848839,72.6704045 C57.7969554,77.0965165 52.2857143,85.9411119 52.2857143,95.9 C52.2857143,110.322052 64.0135089,122.054545 78.4285714,122.054545 C92.8436339,122.054545 104.571429,110.322052 104.571429,95.9 C104.571429,93.4022409 104.227214,90.9655091 103.543687,88.6159591 C112.131616,84.1898472 117.642857,75.3452517 117.642857,65.3863636 C127.597295,65.3863636 136.437937,59.8726585 140.862071,51.2808903 C143.210571,51.9641778 145.646214,52.3090909 148.142857,52.3090909 C150.6395,52.3090909 153.075143,51.9641778 155.423643,51.2808903 C159.847777,59.8726585 168.68842,65.3863636 178.642857,65.3863636 C178.642857,75.3452517 184.154098,84.1898472 192.742027,88.6159591 C192.059045,90.9655091 191.714286,93.4022409 191.714286,95.9 C191.714286,110.322052 203.441536,122.054545 217.857143,122.054545 C232.27275,122.054545 244,110.322052 244,95.9 C244,85.9411119 238.488759,77.0965165 229.90083,72.6704045" id="Fill-17" fill="#ABCD5D" mask="url(#mask-2)"></path>
                    <path d="M200.828884,51.9085994 C178.609089,29.6788705 149.066027,17.4363636 117.642857,17.4363636 C86.2191429,17.4363636 56.676625,29.6788705 34.4568304,51.9085994 C12.2430268,74.1323347 0.00708035649,103.677708 -6.48530027e-10,135.105119 C-0.000544643506,137.517331 1.94600893,139.490909 4.35714286,139.490909 L52.2857143,139.490909 L117.642857,135.131818 L183,139.490909 L235.207286,139.490909 C236.392973,106.434833 224.073152,75.1632597 200.828884,51.9085994" id="Fill-19" fill="#D19D7A" mask="url(#mask-2)"></path>
                    <path d="M13.0714286,135.105119 C13.0785089,103.677708 25.3144554,74.1323347 47.5282589,51.9085994 C68.2001786,31.2274375 95.2117411,19.1963466 124.178571,17.6199903 C122.009804,17.5022949 119.831777,17.4363636 117.642857,17.4363636 C86.2191429,17.4363636 56.676625,29.6788705 34.4568304,51.9085994 C12.2430268,74.1323347 0.00708035649,103.677708 -6.48530027e-10,135.105119 C-0.000544643506,137.516786 1.94600893,139.490909 4.35714286,139.490909 L17.4285714,139.490909 C15.0174375,139.490909 13.0708839,137.516786 13.0714286,135.105119" id="Fill-20" fill="#E5743F" mask="url(#mask-2)"></path>
                </g>
                <path d="M143.7,70.2545455 L91.3,70.2545455 C69.5954833,70.2545455 52,87.6912909 52,109.2 L52,139.490909 L183,139.490909 L183,109.2 C183,87.6912909 165.404517,70.2545455 143.7,70.2545455" id="Fill-22" fill="#98A8B9"></path>
                <path d="M105,70.2545455 L91.75,70.2545455 C69.7964062,70.2545455 52,87.69075 52,109.2 L52,139.490909 L65.25,139.490909 L65.25,109.2 C65.25,87.69075 83.0464062,70.2545455 105,70.2545455" id="Fill-23" fill="#778495"></path>
                <path d="M117.497334,62.1090909 C115.630066,62.1090909 113.917653,60.8934014 113.27233,59.1100079 C112.617435,57.3008097 113.170971,55.1962907 114.639558,53.97372 C116.07999,52.7740868 118.168559,52.6060693 119.773419,53.5648584 C121.381094,54.5253677 122.263485,56.4578552 121.930125,58.3295582 C121.545522,60.4885539 119.657418,62.1090909 117.497334,62.1090909" id="Fill-24" fill="#E5743F"></path>
                <path d="M157.497468,62.1090909 C155.631971,62.1090909 153.917379,60.8913474 153.272648,59.1091858 C152.618344,57.3006388 153.167914,55.1932484 154.639816,53.9726369 C156.09201,52.7692333 158.15684,52.6097737 159.775144,53.565384 C161.385565,54.5164056 162.26285,56.4631891 161.930067,58.3285221 C161.544918,60.4881097 159.657459,62.1090909 157.497468,62.1090909" id="Fill-25" fill="#E5743F"></path>
                <path d="M78.4977357,62.1090909 C76.6303009,62.1090909 74.9177347,60.8934014 74.2723546,59.1100079 C73.6174008,57.3008097 74.170986,55.1962907 75.6397044,53.97372 C77.0802648,52.7740868 79.1690211,52.6060693 80.774024,53.5648584 C82.3801531,54.5247943 83.2654389,56.4567083 82.929233,58.3272645 C82.5417797,60.4862602 80.6619553,62.1090909 78.4977357,62.1090909" id="Fill-26" fill="#E5743F"></path>
                <path d="M117.4979,43.7818182 C115.634173,43.7818182 113.914069,42.5633222 113.271424,40.7817377 C112.631032,39.0076075 113.147514,36.9301435 114.570795,35.70534 C116.046457,34.4352371 118.20081,34.2557598 119.851073,35.2844571 C121.44107,36.2753094 122.282536,38.2271966 121.914183,40.0890585 C121.494014,42.2072346 119.627471,43.7818182 117.4979,43.7818182" id="Fill-27" fill="#E5743F"></path>
                <path d="M139.497805,43.7818182 C137.634117,43.7818182 135.91405,42.5633222 135.271419,40.7817377 C134.63104,39.0076075 135.147511,36.9301435 136.570762,35.70534 C138.04583,34.4352371 140.200138,34.2557598 141.85093,35.2844571 C143.440894,36.2753094 144.282904,38.2266232 143.913997,40.0890585 C143.493836,42.2072346 141.627332,43.7818182 139.497805,43.7818182" id="Fill-28" fill="#E5743F"></path>
                <path d="M96.4982082,43.7818182 C94.6287432,43.7818182 92.9175547,42.5656919 92.272057,40.7807786 C91.6305021,39.0079062 92.1475762,36.9305722 93.5703748,35.705272 C95.04612,34.4352485 97.2005953,34.2557825 98.8509515,35.2844154 C100.441039,36.2752057 101.282552,38.2269708 100.914178,40.0887162 C100.493985,42.2084799 98.6284632,43.7818182 96.4982082,43.7818182" id="Fill-29" fill="#E5743F"></path>
            </g>
        </g>
    </g>
</svg>