<?xml version="1.0" encoding="UTF-8" standalone="no"?>
<svg width="300px" height="300px" viewBox="0 0 300 300" version="1.1" xmlns="http://www.w3.org/2000/svg" xmlns:xlink="http://www.w3.org/1999/xlink">
    <!-- Generator: Sketch 50.2 (55047) - http://www.bohemiancoding.com/sketch -->
    <title>options</title>
    <desc>Created with Sketch.</desc>
    <defs></defs>
    <g id="options" stroke="none" stroke-width="1" fill="none" fill-rule="evenodd">
        <g id="Group" transform="translate(10.000000, 10.000000)">
            <path d="M279.859647,180.692161 C279.859647,235.170452 235.621763,279.297186 181.006247,279.297186 L98.8534005,279.297186 C44.235063,279.297186 0,235.170452 0,180.692161 L0,98.7457286 C0,44.2646231 44.235063,0.140703518 98.8534005,0.140703518 L181.006247,0.140703518 C235.621763,0.140703518 279.859647,44.2646231 279.859647,98.7457286 L279.859647,180.692161 Z" id="Fill-1" fill="#00A3E0"></path>
            <path d="M0,98.7457286 C0,44.2646231 44.235063,0.140703518 98.8534005,0.140703518 L181.006247,0.140703518 C235.621763,0.140703518 279.859647,44.2646231 279.859647,98.7457286 L279.859647,180.692161 C279.859647,235.170452 235.621763,279.297186 181.006247,279.297186" id="Fill-2" fill-opacity="0.6" fill="#BAE3F2" style="mix-blend-mode: multiply;"></path>
            <path d="M181.006247,0.140703518 C235.621763,0.140703518 279.859647,44.2646231 279.859647,98.7457286 L279.859647,180.692161 C279.859647,235.170452 235.621763,279.297186 181.006247,279.297186" id="Fill-3" fill-opacity="0.5" fill="#D8D8D8" style="mix-blend-mode: multiply;"></path>
            <path d="M91.6326448,134.717186 L88.4722418,134.717186 C83.5048866,134.717186 79.8959194,138.770854 79.8959194,143.722915 C79.8959194,148.674975 83.9569773,152.728643 88.4722418,152.728643 L91.6326448,152.728643 C96.5971788,152.728643 100.206146,148.674975 100.206146,143.722915 C100.206146,138.770854 96.1450882,134.717186 91.6326448,134.717186 Z" id="Fill-4" fill="#00A3E0"></path>
            <path d="M141.283627,134.717186 L138.123929,134.717186 C133.159395,134.717186 129.547607,138.770854 129.547607,143.722915 C129.547607,148.674975 133.610781,152.728643 138.123929,152.728643 L141.283627,152.728643 C146.248161,152.728643 149.85995,148.674975 149.85995,143.722915 C149.85995,138.770854 146.248161,134.717186 141.283627,134.717186 Z" id="Fill-5" fill="#00A3E0"></path>
            <path d="M191.3867,134.717186 L188.227003,134.717186 C183.262469,134.717186 179.65068,138.770854 179.65068,143.722915 C179.65068,148.674975 183.713854,152.728643 188.227003,152.728643 L191.3867,152.728643 C196.351234,152.728643 199.963728,148.674975 199.963728,143.722915 C199.963728,138.770854 196.351234,134.717186 191.3867,134.717186 Z" id="Fill-6" fill="#00A3E0"></path>
            <path d="M91.6326448,130.714975 L88.4722418,130.714975 C83.5048866,130.714975 79.8959194,134.765126 79.8959194,139.717186 C79.8959194,144.67206 83.9569773,148.722915 88.4722418,148.722915 L91.6326448,148.722915 C96.5971788,148.722915 100.206146,144.67206 100.206146,139.717186 C100.206146,134.765126 96.1450882,130.714975 91.6326448,130.714975 Z" id="Fill-7" fill="#FFFFFF"></path>
            <path d="M141.283627,130.714975 L138.123929,130.714975 C133.159395,130.714975 129.547607,134.765126 129.547607,139.717186 C129.547607,144.67206 133.610781,148.722915 138.123929,148.722915 L141.283627,148.722915 C146.248161,148.722915 149.85995,144.67206 149.85995,139.717186 C149.85995,134.765126 146.248161,130.714975 141.283627,130.714975 Z" id="Fill-8" fill="#FFFFFF"></path>
            <path d="M191.3867,130.714975 L188.227003,130.714975 C183.262469,130.714975 179.65068,134.765126 179.65068,139.717186 C179.65068,144.67206 183.713854,148.722915 188.227003,148.722915 L191.3867,148.722915 C196.351234,148.722915 199.963728,144.67206 199.963728,139.717186 C199.963728,134.765126 196.351234,130.714975 191.3867,130.714975 Z" id="Fill-9" fill="#FFFFFF"></path>
        </g>
    </g>
</svg>