<?xml version="1.0" encoding="UTF-8" standalone="no"?>
<svg width="300px" height="300px" viewBox="0 0 300 300" version="1.1" xmlns="http://www.w3.org/2000/svg" xmlns:xlink="http://www.w3.org/1999/xlink">
    <!-- Generator: Sketch 50.2 (55047) - http://www.bohemiancoding.com/sketch -->
    <title>013-pizza-1</title>
    <desc>Created with Sketch.</desc>
    <defs>
        <polygon id="path-1" points="0.0328125 0.195091608 279.999197 0.195091608 279.999197 182.109375 0.0328125 182.109375"></polygon>
        <polygon id="path-3" points="0.0328125 0.358203125 280 0.358203125 280 120.189453 0.0328125 120.189453"></polygon>
        <polygon id="path-5" points="0.27453125 0.1946875 106.097578 0.1946875 106.097578 21.2417187 0.27453125 21.2417187"></polygon>
        <polygon id="path-7" points="0.0328125 0.319375 26.5573438 0.319375 26.5573438 81.3454687 0.0328125 81.3454687"></polygon>
    </defs>
    <g id="013-pizza-1" stroke="none" stroke-width="1" fill="none" fill-rule="evenodd">
        <g id="Group" transform="translate(10.000000, 59.000000)">
            <g id="Group-3">
                <mask id="mask-2" fill="white">
                    <use xlink:href="#path-1"></use>
                </mask>
                <g id="Clip-2"></g>
                <path d="M279.998359,87.1614844 C280.001094,86.7447656 279.996719,86.3296875 279.988516,85.9135156 L279.997813,81.8595313 C280.079844,71.1435156 276.5175,60.6457031 269.411953,50.6471875 L268.862344,50.7795313 L268.864531,49.8886719 C261.731094,40.1192969 251.560859,31.3835156 238.635469,23.9219531 C225.769688,16.49375 210.691797,10.6492969 193.814141,6.54773438 L192.496172,8.40492187 L192.502734,6.23382813 C175.884844,2.30617187 158.405625,0.275625 140.546875,0.197421875 C122.048281,0.116484375 103.933594,2.14429687 86.6960938,6.2278125 L86.6895313,8.34859375 L85.3879688,6.54226562 C68.8805469,10.5628906 54.0842969,16.2788281 41.4022656,23.5391406 C28.2646875,31.0586719 17.9741406,39.9180469 10.8078906,49.8728125 L10.8051563,50.7603906 L10.2686719,50.631875 C3.54429688,60.2464844 0.0940625,70.363125 0.016953125,80.7067188 L0.00109375,100.445625 C-0.078203125,111.147969 3.4759375,121.637031 10.5623438,131.622969 L10.5623438,131.657969 L10.583125,131.653047 C10.5842188,131.654688 10.5853125,131.656328 10.5864063,131.657969 L10.5864063,131.6525 L11.1092188,131.526719 L11.1075781,132.415391 C18.2432031,142.183125 28.4402344,150.918906 41.3672656,158.384844 C54.2248438,165.808125 69.2945313,171.64875 86.1601563,175.751406 L86.1601563,175.757422 L86.1639844,175.7525 C86.1710938,175.754141 86.1776562,175.755781 86.1847656,175.757422 L86.1847656,175.722969 L87.4978125,173.872891 L87.4961719,176.071328 C104.117891,179.998438 121.593281,182.028984 139.451484,182.107188 C157.950078,182.188125 176.0675,180.158672 193.302266,176.076797 L193.304453,173.988828 L194.583594,175.765078 L194.621328,162.506641 L194.610391,175.761797 C211.118359,171.741172 225.916797,166.023594 238.601016,158.764922 C251.734219,151.245938 262.026953,142.387109 269.191016,132.43125 L269.191563,131.551875 L269.700703,131.673828 C276.429453,122.060313 279.875859,111.943125 279.952969,101.599531 L279.984688,87.6432813 C279.987969,87.4819531 279.997266,87.3222656 279.998359,87.1614844" id="Fill-1" fill="#EC912E" mask="url(#mask-2)"></path>
            </g>
            <path d="M192.501641,11.5363281 L140,85.5126562 L86.6955469,11.5303125 C103.933047,7.44734375 122.045547,5.4184375 140.546328,5.49773437 C158.406719,5.57757813 175.881563,7.608125 192.501641,11.5363281" id="Fill-4" fill="#FDEB98"></path>
            <polyline id="Fill-5" fill="#E37F2D" points="192.501641 11.5363281 192.460625 25.9738281 139.958984 99.9501563 140 85.5126563 192.501641 11.5363281"></polyline>
            <polyline id="Fill-6" fill="#E37F2D" points="140 85.5126563 139.958984 99.9501563 86.6545313 25.9683594 86.695 11.5308594 140 85.5126563"></polyline>
            <polyline id="Fill-7" fill="#E37F2D" points="268.865625 55.190625 268.824609 69.628125 141.270391 100.265156 141.311406 85.8276563 268.865625 55.190625"></polyline>
            <path d="M238.632188,29.2244531 C251.559219,36.6876563 261.727813,45.4217969 268.865625,55.190625 L141.311406,85.8276563 L193.810313,11.8502344 C210.688516,15.95125 225.766406,21.7957031 238.632188,29.2244531" id="Fill-8" fill="#FDEB98"></path>
            <polyline id="Fill-9" fill="#E37F2D" points="138.694609 85.8265625 138.653047 100.264063 10.7657812 69.6139062 10.8067969 55.1764063 138.694609 85.8265625"></polyline>
            <g id="Group-15" transform="translate(0.000000, 11.484375)">
                <mask id="mask-4" fill="white">
                    <use xlink:href="#path-3"></use>
                </mask>
                <g id="Clip-11"></g>
                <path d="M85.386875,0.358203125 L138.694063,74.3421875 L10.8067969,43.6920312 C17.9730469,33.7350781 28.2608594,24.87625 41.3989844,17.3567187 C54.0815625,10.0969531 68.8778125,4.38046875 85.386875,0.358203125" id="Fill-10" fill="#FDEB98" mask="url(#mask-4)"></path>
                <path d="M269.408672,44.4653125 C276.513672,54.4632813 280.076016,64.9610938 279.998906,75.6771094 C279.921797,86.02125 276.471563,96.1378906 269.742266,105.751953 L141.856641,75.1007031 L269.408672,44.4653125" id="Fill-12" fill="#FDEB98" mask="url(#mask-4)"></path>
                <polyline id="Fill-13" fill="#E37F2D" mask="url(#mask-4)" points="269.742266 105.7525 269.70125 120.189453 141.815625 89.5376563 141.856641 75.1007031 269.742266 105.7525"></polyline>
                <path d="M138.155391,75.1007031 L10.6039062,105.736094 C3.49835937,95.7386719 -0.063984375,85.2403125 0.015859375,74.5259375 C0.09296875,64.1790625 3.54101562,54.0635156 10.2697656,44.4494531 L138.155391,75.1007031" id="Fill-14" fill="#FDEB98" mask="url(#mask-4)"></path>
            </g>
            <polyline id="Fill-16" fill="#E37F2D" points="138.155391 86.5850781 138.114375 101.022031 10.5623438 131.657969 10.6039063 117.220469 138.155391 86.5850781"></polyline>
            <path d="M269.205781,117.99375 C262.039531,127.95125 251.751172,136.809531 238.613594,144.329063 C225.931563,151.589375 211.135313,157.305859 194.625156,161.327031 L141.320156,87.3425 L269.205781,117.99375" id="Fill-17" fill="#FDEB98"></path>
            <polyline id="Fill-18" fill="#E37F2D" points="194.624609 161.327578 194.584141 175.765078 141.279141 101.78 141.320156 87.3425 194.624609 161.327578"></polyline>
            <polyline id="Fill-19" fill="#E37F2D" points="138.700625 87.3425 138.659609 101.78 86.1607031 175.757422 86.2011719 161.319922 138.700625 87.3425"></polyline>
            <path d="M138.700625,87.3425 L86.2011719,161.319922 C69.3235156,157.218906 54.2461719,151.374453 41.3820312,143.947891 C28.4522656,136.483047 18.2836719,127.748906 11.1480469,117.978438 L138.700625,87.3425" id="Fill-20" fill="#FDEB98"></path>
            <path d="M140.012031,87.6569531 L193.317031,161.639297 C176.079531,165.722266 157.966484,167.751719 139.467891,167.670781 C121.6075,167.593672 104.130469,165.562578 87.5103906,161.633828 L140.012031,87.6569531" id="Fill-21" fill="#FDEB98"></path>
            <polyline id="Fill-22" fill="#E37F2D" points="192.503828 6.23382813 192.486875 12.0082812 185.932031 21.2471875 185.948984 15.4721875 192.503828 6.23382813"></polyline>
            <path d="M185.948984,15.4721875 L185.932031,21.2471875 C156.281563,14.2641406 122.911797,14.2630469 93.3378906,21.2422656 L93.3542969,15.4672656 C122.92875,8.48804688 156.297422,8.48914062 185.948984,15.4721875" id="Fill-23" fill="#EC912E"></path>
            <g id="Group-27" transform="translate(86.406250, 0.000000)">
                <mask id="mask-6" fill="white">
                    <use xlink:href="#path-5"></use>
                </mask>
                <g id="Clip-25"></g>
                <polyline id="Fill-24" fill="#E37F2D" mask="url(#mask-6)" points="6.9475 15.4667187 6.93164063 21.2417187 0.27453125 12.0028125 0.2909375 6.2278125 6.9475 15.4667187"></polyline>
                <path d="M106.097578,6.23382813 L99.5427344,15.4716406 C69.8917188,8.48859375 36.5225,8.4875 6.94804688,15.4667187 L0.291484375,6.22726563 C17.5289844,2.14429688 35.6442188,0.116484375 54.1422656,0.196875 C72.0004688,0.275625 89.4796875,2.30617188 106.097578,6.23382813" id="Fill-26" fill="#F6BF76" mask="url(#mask-6)"></path>
            </g>
            <path d="M252.929141,53.71625 L252.912188,59.49125 C246.885625,51.2482031 238.057422,43.5279687 226.430859,36.8150781 C214.815234,30.10875 201.473672,25.0244531 187.243438,21.5616406 L187.260391,15.7866406 C201.490078,19.25 214.832734,24.33375 226.447266,31.0400781 C238.073828,37.7529688 246.902578,45.47375 252.929141,53.71625" id="Fill-28" fill="#EC912E"></path>
            <polyline id="Fill-29" fill="#E37F2D" points="268.865078 49.8892188 268.849219 55.6642188 252.912734 59.49125 252.929141 53.71625 268.865078 49.8892188"></polyline>
            <path d="M238.636562,23.9225 C251.561406,31.3846094 261.732734,40.1198437 268.865625,49.8892188 L252.929687,53.7157031 C246.902578,45.4732031 238.074375,37.7524219 226.447812,31.0395312 C214.832734,24.3332031 201.490625,19.2494531 187.260937,15.7860937 L193.815781,6.54828125 C210.692891,10.6498437 225.770234,16.4942969 238.636562,23.9225" id="Fill-30" fill="#F6BF76"></path>
            <path d="M85.3890625,6.54226562 L92.0483594,15.7800781 C77.8454688,19.2439844 64.5492969,24.3299219 53.0053125,31.0389844 C41.4613281,37.7475 32.7239063,45.4660938 26.7903125,53.7036719 L10.8089844,49.8728125 C17.9752344,39.9180469 28.2657813,31.0586719 41.4033594,23.5391406 C54.0853906,16.279375 68.8816406,10.5628906 85.3890625,6.54226562" id="Fill-31" fill="#F6BF76"></path>
            <path d="M92.0483594,15.780625 L92.0314063,21.555625 C77.8290625,25.0195312 64.5328906,30.1054688 52.9889063,36.8145312 C41.444375,43.5230469 32.7075,51.2416406 26.7733594,59.4792187 L26.7903125,53.7042187 C32.7239062,45.4666406 41.4613281,37.7480469 53.0053125,31.0395312 C64.5498438,24.3304688 77.8460156,19.2445313 92.0483594,15.780625" id="Fill-32" fill="#EC912E"></path>
            <polyline id="Fill-33" fill="#E37F2D" points="26.7903125 53.7042188 26.7733594 59.4792188 10.7920313 55.6483594 10.8089844 49.8733594 26.7903125 53.7042188"></polyline>
            <path d="M17.35125,86.6971875 L17.3676562,80.9221875 C17.3933594,71.9211719 20.3535938,62.9272656 26.2516406,54.4632812 L26.2352344,60.2382812 C20.3371875,68.7017187 17.3764062,77.6961719 17.35125,86.6971875" id="Fill-34" fill="#EC912E"></path>
            <g id="Group-38" transform="translate(253.203125, 50.312500)">
                <path d="M9.44726563,31.3096875 L9.4303125,37.0846875 C9.4565625,27.8545313 6.39679688,18.6178125 0.25484375,9.93835938 L0.271796875,4.16335937 C6.41320313,12.8433594 9.47296875,22.0800781 9.44726563,31.3096875" id="Fill-35" fill="#EC912E"></path>
                <path d="M16.209375,0.335234375 C23.3149219,10.3332031 26.8772656,20.8310156 26.7952344,31.5475781 C26.718125,41.8917188 23.2722656,52.0083594 16.5429687,61.6224219 L0.54796875,57.7888281 C12.5092188,40.6404688 12.4075,21.3144531 0.27125,4.16335937 L16.209375,0.335234375" id="Fill-37" fill="#F6BF76"></path>
            </g>
            <polyline id="Fill-39" fill="#E37F2D" points="269.746094 111.934922 269.730234 117.709922 253.735234 113.876328 253.751094 108.101328 269.746094 111.934922"></polyline>
            <path d="M279.998359,81.8595313 L279.953516,101.598984 C279.876406,111.943125 276.430547,122.059766 269.70125,131.673281 L269.746094,111.934375 C276.475391,102.320313 279.92125,92.2036719 279.998359,81.8595313" id="Fill-40" fill="#EC912E"></path>
            <g id="Group-45" transform="translate(0.000000, 50.312500)">
                <mask id="mask-8" fill="white">
                    <use xlink:href="#path-7"></use>
                </mask>
                <g id="Clip-42"></g>
                <polyline id="Fill-41" fill="#E37F2D" mask="url(#mask-8)" points="26.5573438 57.7746094 26.5409375 63.5490625 10.5869531 67.3815625 10.6039062 61.6065625 26.5573438 57.7746094"></polyline>
                <path d="M10.6039063,61.6065625 L10.5869531,81.3454687 C3.48414063,71.3485937 -0.078203125,60.8480469 0.00109375,50.133125 L0.018046875,30.3942188 C-0.061796875,41.1091406 3.50054688,51.6096875 10.6039063,61.6065625" id="Fill-43" fill="#EC912E" mask="url(#mask-8)"></path>
                <path d="M26.2510938,4.15023438 C14.3013281,21.2996875 14.4101563,40.6246094 26.5573438,57.7740625 L10.6039063,61.6065625 C3.50054688,51.6096875 -0.061796875,41.1091406 0.018046875,30.3942188 C0.09515625,20.0500781 3.54539063,9.9334375 10.2697656,0.319375 L26.2510938,4.15023438" id="Fill-44" fill="#F6BF76" mask="url(#mask-8)"></path>
            </g>
            <polyline id="Fill-46" fill="#E37F2D" points="194.627344 156.024531 194.610391 161.799531 187.940156 152.541484 187.956563 146.767031 194.627344 156.024531"></polyline>
            <path d="M269.207422,112.693437 L269.191016,132.430703 C262.026953,142.386562 251.734219,151.245391 238.601016,158.764922 C225.916797,166.023047 211.118359,171.741172 194.610391,175.76125 L194.627344,156.023984 C211.134766,152.003359 225.933203,146.285781 238.617422,139.027109 C251.750625,131.507578 262.043359,122.649844 269.207422,112.693437" id="Fill-47" fill="#EC912E"></path>
            <path d="M269.207422,112.693438 C262.043359,122.649297 251.750625,131.507578 238.617422,139.027109 C225.933203,146.285781 211.134766,152.003359 194.627344,156.023984 L187.956563,146.766484 C202.163828,143.302031 215.463828,138.213359 227.013281,131.502109 C238.549063,124.798516 247.281016,117.088125 253.212969,108.859297 L269.207422,112.693438" id="Fill-48" fill="#F6BF76"></path>
            <polyline id="Fill-49" fill="#E37F2D" points="92.7724219 146.760469 92.7554688 152.535469 86.1847656 161.793516 86.2011719 156.018516 92.7724219 146.760469"></polyline>
            <path d="M92.7724219,146.760469 L86.2011719,156.018516 C69.3257031,151.915859 54.2483594,146.074141 41.3842188,138.647031 C28.4571875,131.181641 18.2864063,122.445859 11.1507813,112.677578 L27.1020313,108.846719 C33.1291406,117.082109 41.9529687,124.797422 53.5707812,131.504844 C65.1864063,138.210625 78.535625,143.296562 92.7724219,146.760469" id="Fill-50" fill="#F6BF76"></path>
            <path d="M86.2011719,156.018516 L86.1847656,175.757422 C69.30875,171.655312 54.2314062,165.811406 41.3672656,158.385391 C28.4402344,150.919453 18.2432031,142.183672 11.1075781,132.415937 L11.1507812,112.678125 C18.2858594,122.446406 28.4566406,131.182187 41.3842188,138.647578 C54.2483594,146.074141 69.3257031,151.915859 86.2011719,156.018516" id="Fill-51" fill="#EC912E"></path>
            <g id="Group-55" transform="translate(86.953125, 146.562500)">
                <path d="M99.6958594,0.51625 L106.366094,9.77648438 C89.1307813,13.8583594 71.0133594,15.8872656 52.5147656,15.806875 C34.6565625,15.7286719 17.1822656,13.698125 0.559453125,9.77046875 L7.13289063,0.511875 C36.771875,7.49054687 70.1301562,7.49273438 99.6958594,0.51625" id="Fill-52" fill="#F6BF76"></path>
                <path d="M106.366094,9.77648438 L106.349141,29.51375 C89.114375,33.595625 70.9969531,35.6245313 52.4983594,35.5441406 C34.6401563,35.4659375 17.1653125,33.4353906 0.543046875,29.5082813 L0.559453125,9.77046875 C17.1822656,13.698125 34.6565625,15.7286719 52.5147656,15.806875 C71.0133594,15.8872656 89.1307813,13.8583594 106.366094,9.77648438" id="Fill-54" fill="#EC912E"></path>
            </g>
            <path d="M108.111719,71.4328125 C113.962734,74.8103125 123.412188,74.8103125 129.224375,71.4328125 C132.111328,69.755 133.557266,67.5592969 133.562734,65.3608594 L133.570938,62.4733594 C133.570938,62.5384375 133.565469,62.6029687 133.562188,62.6675 C133.657344,60.3760937 132.193359,58.065 129.163672,56.3160937 C123.314844,52.9391406 113.861016,52.9391406 108.050469,56.3160937 C105.154219,57.999375 103.709922,60.2032812 103.712656,62.4099219 C103.712656,62.4022656 103.711562,62.3957031 103.712109,62.3880469 L103.704453,65.2755469 C103.697891,67.5029687 105.168437,69.7336719 108.111719,71.4328125 Z M71.8057813,43.0232031 C77.6535156,46.3996094 87.1078906,46.3996094 92.9184375,43.0232031 C95.8064844,41.3448437 97.251875,39.1491406 97.2578906,36.9496094 L97.2660937,34.0621094 C97.2660937,34.1260937 97.2600781,34.1900781 97.2573438,34.2540625 C97.3508594,31.9632031 95.8863281,29.6526562 92.859375,27.9053906 C87.0089063,24.5273437 77.5550781,24.5273437 71.7423438,27.9053906 C68.8466406,29.588125 67.4023438,31.7920313 67.405625,33.9986719 C67.405625,33.9910156 67.4045313,33.9844531 67.4045313,33.9767969 L67.3963281,36.8642969 C67.3908594,39.0917187 68.8614063,41.3229688 71.8057813,43.0232031 Z M92.9769531,119.115937 C87.1286719,115.739531 77.6742969,115.739531 71.86375,119.115937 C68.9675,120.799766 67.5226562,123.003672 67.5259375,125.209766 C67.5259375,125.202656 67.5248437,125.195547 67.5248437,125.188437 L67.5171875,128.075937 C67.510625,130.303359 68.9811719,132.534062 71.9244531,134.23375 C77.7754687,137.61125 87.2249219,137.61125 93.0371094,134.23375 C95.9240625,132.555937 97.37,130.360234 97.3754687,128.16125 L97.3836719,125.27375 C97.3836719,125.338281 97.3776563,125.402812 97.3749219,125.467344 C97.4700781,123.175391 96.0055469,120.865391 92.9769531,119.115937 Z M162.949062,132.600234 C157.100234,129.223828 147.646406,129.223828 141.833672,132.601328 C138.937969,134.284609 137.493672,136.489062 137.496953,138.695156 C137.496953,138.688047 137.495312,138.680937 137.495312,138.673828 L137.487656,141.560781 C137.481094,143.78875 138.951094,146.019453 141.893828,147.718047 C147.744844,151.096094 157.198672,151.096094 163.009219,147.719141 C165.896719,146.041328 167.342109,143.845078 167.348672,141.646094 L167.356328,138.758594 C167.356328,138.822031 167.350859,138.885469 167.348125,138.948359 C167.441641,136.658594 165.977109,134.348594 162.949062,132.600234 Z M140.893047,121.428672 L140.90125,118.541172 C140.90125,118.605156 140.895781,118.669687 140.8925,118.733672 C140.987109,116.442812 139.522578,114.132266 136.494531,112.383906 C130.643516,109.006406 121.191875,109.0075 115.381328,112.383906 C112.485625,114.067187 111.040781,116.271641 111.044062,118.477187 C111.044062,118.470625 111.042422,118.462969 111.042969,118.456406 L111.035312,121.343906 C111.02875,123.570781 112.49875,125.801484 115.442578,127.500625 C121.291406,130.877578 130.745234,130.877578 136.555781,127.500625 C139.441641,125.823359 140.887031,123.627656 140.893047,121.428672 Z M120.525234,97.4799219 L120.532891,94.5924219 C120.532891,94.6564062 120.527422,94.7203906 120.524687,94.784375 C120.618203,92.4929687 119.153125,90.181875 116.123437,88.4329687 C110.274609,85.0565625 100.822969,85.0549219 95.0102344,88.4329687 C92.1145313,90.1157031 90.6702344,92.3201562 90.6735156,94.52625 C90.6735156,94.5191406 90.671875,94.5120312 90.6729687,94.5049219 L90.6647656,97.3924219 C90.6582031,99.6198437 92.1282031,101.850547 95.0709375,103.549687 C100.921953,106.927187 110.375781,106.927187 116.186328,103.550781 C119.073828,101.872969 120.518672,99.6783594 120.525234,97.4799219 Z M56.8514844,86.0699219 C51.0032031,82.6935156 41.549375,82.6935156 35.7388281,86.0699219 C32.8420312,87.75375 31.3982813,89.9576562 31.4010156,92.16375 C31.4010156,92.1566406 31.3999219,92.1495312 31.4004687,92.141875 L31.3928125,95.029375 C31.38625,97.2567969 32.8567969,99.4880469 35.8000781,101.187187 C41.6489062,104.564141 51.1,104.565234 56.9127344,101.187187 C59.7991406,99.509375 61.2445312,97.3142187 61.2505469,95.1152344 L61.25875,92.2277344 C61.25875,92.2917187 61.2527344,92.35625 61.25,92.4202344 C61.3435156,90.1288281 59.8789844,87.8182812 56.8514844,86.0699219 Z M81.48875,68.6005469 L81.4964062,65.7130469 C81.4964062,65.7770312 81.4909375,65.8410156 81.4882031,65.905 C81.5822656,63.6141406 80.1171875,61.3035937 77.0891406,59.5552344 C71.238125,56.1777344 61.7864844,56.1766406 55.97375,59.5541406 C53.0780469,61.2374219 51.63375,63.4413281 51.6375781,65.6474219 C51.6375781,65.6403125 51.6359375,65.6332031 51.6359375,65.6255469 L51.6282813,68.5130469 C51.6217187,70.7415625 53.0922656,72.9728125 56.0366406,74.6719531 C61.8854688,78.0489062 71.3392969,78.0489062 77.1498438,74.6719531 C80.0373438,72.9946875 81.4821875,70.7989844 81.48875,68.6005469 Z M160.351953,73.185 C166.200234,76.5614062 175.651875,76.5625 181.464609,73.185 C184.351016,71.5071875 185.796406,69.3114844 185.802422,67.1125 L185.810625,64.225 C185.810625,64.2889844 185.804609,64.3540625 185.801875,64.4180469 C185.895938,62.1266406 184.431406,59.8160937 181.403359,58.0677344 C175.552344,54.6902344 166.10125,54.6913281 160.290703,58.0677344 C157.393359,59.7515625 155.949062,61.9554687 155.952344,64.1610156 C155.952344,64.1544531 155.951797,64.1467969 155.951797,64.1402344 L155.943594,67.0277344 C155.937578,69.2546094 157.407578,71.4847656 160.351953,73.185 Z M201.598906,122.411406 C195.747891,119.033906 186.294062,119.033906 180.483516,122.410312 C177.587813,124.093594 176.143516,126.2975 176.146797,128.503594 C176.146797,128.496484 176.14625,128.489375 176.14625,128.482266 L176.138594,131.369219 C176.132031,133.597734 177.602578,135.828437 180.546953,137.528125 C186.395781,140.905078 195.849609,140.905078 201.659609,137.528125 C204.546016,135.850859 205.991406,133.655156 205.997422,131.456172 L206.005625,128.568672 C206.005625,128.632656 205.999609,128.697187 205.996875,128.761172 C206.091484,126.470312 204.626406,124.159766 201.598906,122.411406 Z M217.583516,98.7175 C211.7325,95.34 202.283047,95.34 196.470313,98.7175 C193.574609,100.400781 192.129766,102.605234 192.133047,104.810781 C192.133047,104.804219 192.1325,104.796562 192.1325,104.789453 L192.124297,107.676953 C192.117734,109.903828 193.587734,112.135078 196.531563,113.834219 C202.379844,117.211172 211.834219,117.211172 217.644766,113.834219 C220.532266,112.156406 221.977109,109.96125 221.983125,107.762266 L221.990781,104.874766 C221.990781,104.93875 221.985312,105.002734 221.982031,105.067266 C222.076094,102.776406 220.611562,100.465859 217.583516,98.7175 Z M185.802969,93.5325781 L185.811172,90.6450781 C185.811172,90.7096094 185.805156,90.7735937 185.802422,90.838125 C185.896484,88.5472656 184.431953,86.2367187 181.403359,84.4878125 C175.555078,81.1114062 166.10125,81.1114062 160.290703,84.4878125 C157.393359,86.1710937 155.949062,88.3760937 155.951797,90.5827344 C155.951797,90.575625 155.95125,90.5685156 155.95125,90.5614062 L155.943047,93.4489062 C155.937031,95.6763281 157.406484,97.9070312 160.349766,99.605625 C166.200234,102.983125 175.651875,102.982031 181.464609,99.6045312 C184.351563,97.9272656 185.796953,95.7321094 185.802969,93.5325781 Z M250.888203,81.4942187 C250.982812,79.2033594 249.517734,76.8922656 246.489688,75.1444531 C240.638672,71.7664062 231.189219,71.7664062 225.376484,75.1444531 C222.480781,76.8271875 221.035938,79.0316406 221.038672,81.2371875 C221.038672,81.230625 221.038125,81.2229687 221.038125,81.2164062 L221.030469,84.1039062 C221.023906,86.3307812 222.493906,88.5614844 225.437734,90.2611719 C231.286563,93.6375781 240.740391,93.6375781 246.550391,90.2611719 C249.437891,88.5833594 250.882734,86.3876562 250.88875,84.1886719 L250.896953,81.3011719 C250.896406,81.3651562 250.891484,81.4296875 250.888203,81.4942187 Z M180.755313,45.1882812 C186.606328,48.5663281 196.060156,48.5663281 201.870703,45.189375 C204.758203,43.5110156 206.203594,41.3153125 206.210156,39.1163281 L206.218359,36.2288281 C206.218359,36.2922656 206.212344,36.3557031 206.209609,36.4191406 C206.302578,34.1288281 204.8375,31.8182813 201.809453,30.0704687 C195.960625,26.6940625 186.506797,26.6940625 180.694609,30.0721094 C177.798359,31.7548437 176.354063,33.9598437 176.357891,36.1653906 C176.357891,36.1588281 176.356797,36.1511719 176.356797,36.1440625 L176.348594,39.0315625 C176.343125,41.2584375 177.812578,43.4896875 180.755313,45.1882812 Z M129.040078,42.2586719 C134.891094,45.6361719 144.342734,45.6372656 150.154922,42.2597656 C153.041328,40.5825 154.486719,38.3873437 154.492187,36.1883594 L154.500391,33.3008594 C154.500391,33.3648437 154.494375,33.4288281 154.491641,33.4933594 C154.585703,31.2019531 153.120625,28.8908594 150.091484,27.1419531 C144.243203,23.765 134.789375,23.765 128.978828,27.1419531 C126.081484,28.8252344 124.637734,31.0296875 124.641016,33.2357812 C124.641016,33.228125 124.639922,33.2210156 124.640469,33.2139062 L124.632266,36.1014062 C124.62625,38.3288281 126.096797,40.5595312 129.040078,42.2586719 Z" id="Fill-56" fill="#BA2F2B"></path>
            <path d="M154.500937,33.3008594 L154.492734,36.1883594 C154.486719,38.3873438 153.041328,40.5825 150.155469,42.2597656 C144.343281,45.6372656 134.891094,45.6361719 129.040625,42.2586719 C126.097344,40.5589844 124.626797,38.3282813 124.633359,36.1008594 L124.641016,33.2133594 C124.635,35.4407813 126.105,37.6714844 129.048828,39.370625 C134.899297,42.748125 144.350937,42.7492187 150.163672,39.3717187 C153.050078,37.695 154.494375,35.4998438 154.500937,33.3008594" id="Fill-57" fill="#BA2F2B"></path>
            <path d="M150.092031,27.1419531 C155.943047,30.5194531 155.974219,35.9964062 150.163125,39.3728125 C144.350391,42.7508594 134.898203,42.7497656 129.048281,39.3717187 C123.199453,35.9953125 123.166641,30.52 128.979375,27.1425 C134.789922,23.765 144.244297,23.765 150.092031,27.1419531" id="Fill-58" fill="#DE4D31"></path>
            <path d="M206.218359,36.2288281 L206.210156,39.1163281 C206.203594,41.3158594 204.75875,43.5115625 201.870703,45.189375 C196.060156,48.5663281 186.605781,48.5663281 180.755313,45.1882813 C177.812578,43.4896875 176.343125,41.2584375 176.349141,39.0310156 L176.357344,36.1435156 C176.350781,38.3709375 177.820781,40.6021875 180.763516,42.3007812 C186.614531,45.6788281 196.068359,45.6788281 201.878906,42.301875 C204.766406,40.6240625 206.212344,38.4283594 206.218359,36.2288281" id="Fill-59" fill="#BA2F2B"></path>
            <path d="M201.81,30.0699219 C207.661016,33.4474219 207.691641,38.924375 201.878906,42.301875 C196.068359,45.6788281 186.613984,45.6788281 180.763516,42.3007812 C174.914688,38.924375 174.884063,33.4479687 180.695156,30.0715625 C186.507344,26.6935156 195.961719,26.6935156 201.81,30.0699219" id="Fill-60" fill="#DE4D31"></path>
            <path d="M215.334766,60.6878125 C221.185781,64.0658594 230.639609,64.0658594 236.450156,60.6889062 C239.337656,59.0110938 240.783047,56.8148437 240.789609,54.6158594 L240.797266,51.7283594 C240.797266,51.7917969 240.791797,51.8552344 240.789063,51.9186719 C240.882031,49.6283594 239.416953,47.3183594 236.388906,45.57 C230.540078,42.1935937 221.08625,42.1935937 215.273516,45.5716406 C212.377813,47.2549219 210.933516,49.459375 210.936797,51.6649219 C210.936797,51.6583594 210.935703,51.6507031 210.935703,51.6441406 L210.928047,54.5310938 C210.922031,56.7585156 212.392031,58.9892187 215.334766,60.6878125" id="Fill-61" fill="#BA2F2B"></path>
            <path d="M240.797813,51.7283594 L240.790156,54.6158594 C240.783594,56.8153906 239.33875,59.0116406 236.450703,60.6889063 C230.640156,64.0658594 221.185781,64.0658594 215.335313,60.6878125 C212.392578,58.9892187 210.922578,56.7585156 210.929141,54.5305469 L210.936797,51.6435938 C210.930781,53.8710156 212.400234,56.1017187 215.343516,57.8003125 C221.194531,61.1783594 230.648359,61.1783594 236.458359,57.8019531 C239.345859,56.1241406 240.791797,53.9278906 240.797813,51.7283594" id="Fill-62" fill="#BA2F2B"></path>
            <path d="M236.389453,45.5694531 C242.240469,48.9475 242.271094,54.4239063 236.457813,57.8019531 C230.647813,61.1783594 221.192891,61.1783594 215.342969,57.8003125 C209.494141,54.4239063 209.463516,48.9480469 215.274063,45.5710938 C221.086797,42.1935938 230.541172,42.1930469 236.389453,45.5694531" id="Fill-63" fill="#DE4D31"></path>
            <path d="M250.896953,81.3011719 L250.88875,84.1886719 C250.882734,86.3871094 249.437891,88.5828125 246.550391,90.2611719 C240.740391,93.6375781 231.286016,93.6375781 225.437734,90.2611719 C222.493906,88.5614844 221.023906,86.3307813 221.030469,84.1039063 L221.038125,81.2164063 C221.032109,83.4432813 222.501563,85.6739844 225.445938,87.3736719 C231.294219,90.7500781 240.748047,90.7500781 246.558594,87.3736719 C249.445547,85.6953125 250.890938,83.5001563 250.896953,81.3011719" id="Fill-64" fill="#BA2F2B"></path>
            <path d="M246.489687,75.1444531 C252.337969,78.5208594 252.370781,83.995625 246.558047,87.3736719 C240.7475,90.7500781 231.293125,90.7500781 225.445391,87.3736719 C219.594375,83.995625 219.565937,78.5208594 225.376484,75.1444531 C231.189219,71.7658594 240.638672,71.7658594 246.489687,75.1444531" id="Fill-65" fill="#DE4D31"></path>
            <path d="M185.811719,90.6450781 L185.803516,93.5325781 C185.7975,95.7315625 184.352109,97.9267188 181.465156,99.6045312 C175.652422,102.982031 166.200234,102.984219 160.350313,99.605625 C157.407031,97.9070313 155.937578,95.6757812 155.943594,93.4489062 L155.951797,90.5614063 C155.945781,92.7888281 157.415234,95.0195312 160.357969,96.718125 C166.208984,100.096172 175.660625,100.095078 181.473359,96.7170312 C184.359766,95.0397656 185.805156,92.8446094 185.811719,90.6450781" id="Fill-66" fill="#BA2F2B"></path>
            <path d="M181.403906,84.4878125 C187.254922,87.8653125 187.283359,93.340625 181.472813,96.7170312 C175.660078,100.094531 166.207891,100.096719 160.357422,96.718125 C154.509141,93.3417187 154.477969,87.8653125 160.290703,84.4872656 C166.101797,81.1119531 175.555625,81.1119531 181.403906,84.4878125" id="Fill-67" fill="#DE4D31"></path>
            <path d="M221.990781,104.875312 L221.983125,107.762812 C221.976563,109.96125 220.531172,112.156406 217.644766,113.834766 C211.834219,117.211719 202.379844,117.211719 196.531563,113.834766 C193.587734,112.135625 192.117734,109.904375 192.124297,107.6775 L192.1325,104.790547 C192.125938,107.017422 193.595938,109.248125 196.539766,110.947266 C202.388594,114.324219 211.842422,114.324219 217.652422,110.947266 C220.539375,109.269453 221.984766,107.07375 221.990781,104.875312" id="Fill-68" fill="#BA2F2B"></path>
            <path d="M217.583516,98.7175 C223.431797,102.094453 223.464609,107.569219 217.651875,110.946719 C211.841875,114.323672 202.386953,114.323672 196.539219,110.946719 C190.688203,107.569219 190.659766,102.094453 196.470312,98.7175 C202.2825,95.34 211.7325,95.34 217.583516,98.7175" id="Fill-69" fill="#DE4D31"></path>
            <path d="M206.005625,128.568672 L205.997422,131.456172 C205.991406,133.655156 204.546016,135.850859 201.659609,137.528672 C195.849609,140.905078 186.395234,140.905078 180.546953,137.528672 C177.602578,135.828438 176.132031,133.597187 176.138594,131.369219 L176.14625,128.482266 C176.140234,130.710234 177.610234,132.940937 180.555156,134.641172 C186.403438,138.017578 195.857266,138.017578 201.667812,134.641172 C204.554219,132.963359 205.999063,130.767656 206.005625,128.568672" id="Fill-70" fill="#BA2F2B"></path>
            <path d="M201.598906,122.411406 C207.447188,125.788359 207.478359,131.264219 201.667266,134.641172 C195.856719,138.017578 186.402344,138.017578 180.554609,134.641172 C174.703594,131.263125 174.672422,125.786719 180.483516,122.409766 C186.294609,119.033359 195.748438,119.033906 201.598906,122.411406" id="Fill-71" fill="#DE4D31"></path>
            <path d="M185.811172,64.2244531 L185.802969,67.1119531 C185.796953,69.3109375 184.351562,71.5066406 181.465156,73.1839063 C175.652422,76.5619531 166.200234,76.5608594 160.3525,73.1839063 C157.408125,71.4842188 155.938125,69.2540625 155.944141,67.0271875 L155.952344,64.1396875 C155.946328,66.3665625 157.416328,68.5972656 160.360156,70.2969531 C166.208984,73.6733594 175.660625,73.6744531 181.473359,70.2969531 C184.359766,68.6196875 185.804609,66.4239844 185.811172,64.2244531" id="Fill-72" fill="#BA2F2B"></path>
            <path d="M181.403906,58.0671875 C187.252734,61.4441406 187.283359,66.92 181.472812,70.2969531 C175.660078,73.6744531 166.207891,73.6733594 160.359609,70.2969531 C154.509141,66.9189063 154.478516,61.4452344 160.29125,58.0671875 C166.101797,54.6907813 175.553984,54.6896875 181.403906,58.0671875" id="Fill-73" fill="#DE4D31"></path>
            <path d="M81.4964062,65.7130469 L81.48875,68.6005469 C81.4821875,70.7989844 80.0373437,72.9946875 77.1503906,74.6730469 C71.3398437,78.0494531 61.8854688,78.0494531 56.0371875,74.6730469 C53.0928125,72.9728125 51.6222656,70.7415625 51.6288281,68.5135937 L51.6370312,65.6266406 C51.6304687,67.8546094 53.1010156,70.0858594 56.0453906,71.7855469 C61.8942187,75.1619531 71.3480469,75.1619531 77.1580469,71.7855469 C80.0455469,70.1071875 81.4903906,67.9114844 81.4964062,65.7130469" id="Fill-74" fill="#BA2F2B"></path>
            <path d="M77.0896875,59.5552344 C82.9385156,62.9321875 82.9707813,68.4069531 77.1580469,71.785 C71.3480469,75.1614062 61.8936719,75.1614062 56.0453906,71.785 C50.194375,68.4069531 50.16375,62.9305469 55.9742969,59.5535938 C61.7864844,56.1766406 71.2386719,56.1777344 77.0896875,59.5552344" id="Fill-75" fill="#DE4D31"></path>
            <path d="M61.2582031,92.2271875 L61.25,95.1146875 C61.2439844,97.3136719 59.7985938,99.5088281 56.9121875,101.186641 C51.0994531,104.564688 41.6472656,104.563594 35.7995313,101.186641 C32.8557031,99.4875 31.3857031,97.25625 31.3917188,95.0288281 L31.3999219,92.1413281 C31.3939063,94.36875 32.8639063,96.6 35.8071875,98.2985938 C41.6560156,101.675547 51.1076563,101.676641 56.9203906,98.2985938 C59.8067969,96.621875 61.2516406,94.4261719 61.2582031,92.2271875" id="Fill-76" fill="#BA2F2B"></path>
            <path d="M56.8514844,86.0699219 C62.7003125,89.446875 62.7314844,94.9227344 56.9203906,98.2991406 C51.1076563,101.677187 41.6554688,101.676094 35.8071875,98.2991406 C29.9589063,94.9227344 29.9260938,89.4479687 35.7388281,86.0699219 C41.5488281,82.6935156 51.0032031,82.6935156 56.8514844,86.0699219" id="Fill-77" fill="#DE4D31"></path>
            <path d="M120.532891,94.5924219 L120.525234,97.4799219 C120.518672,99.6783594 119.073828,101.873516 116.186875,103.551328 C110.376328,106.928281 100.921953,106.928281 95.0714844,103.550234 C92.12875,101.851641 90.65875,99.6203906 90.6653125,97.3929688 L90.6735156,94.5054688 C90.6669531,96.7328906 92.1369531,98.9641406 95.0796875,100.662734 C100.930703,104.040781 110.384531,104.040781 116.194531,100.663828 C119.082031,98.9854688 120.526875,96.7908594 120.532891,94.5924219" id="Fill-78" fill="#BA2F2B"></path>
            <path d="M116.123984,88.4329688 C121.975,91.8104687 122.007266,97.2857812 116.194531,100.663828 C110.384531,104.040781 100.930156,104.040781 95.0796875,100.662734 C89.2308594,97.2863281 89.2002344,91.8099219 95.0107813,88.4335156 C100.823516,85.0549219 110.275156,85.0565625 116.123984,88.4329688" id="Fill-79" fill="#DE4D31"></path>
            <path d="M140.90125,118.541172 L140.893047,121.428672 C140.887031,123.627656 139.441641,125.823359 136.555781,127.500625 C130.745234,130.877578 121.290859,130.877578 115.442578,127.500625 C112.49875,125.801484 111.02875,123.570781 111.035313,121.343906 L111.043516,118.456406 C111.036953,120.683281 112.506953,122.913984 115.450781,124.613125 C121.299609,127.990078 130.753438,127.990078 136.563438,124.613125 C139.449844,122.935859 140.895234,120.740156 140.90125,118.541172" id="Fill-80" fill="#BA2F2B"></path>
            <path d="M136.495078,112.383906 C142.343359,115.760859 142.374531,121.236719 136.563437,124.613125 C130.753437,127.990078 121.299062,127.990078 115.450781,124.613125 C109.599766,121.235625 109.571328,115.760859 115.382422,112.383906 C121.191875,109.0075 130.644062,109.005859 136.495078,112.383906" id="Fill-81" fill="#DE4D31"></path>
            <path d="M167.356875,138.758594 L167.349219,141.646094 C167.342656,143.845625 165.897812,146.041875 163.009766,147.719141 C157.199219,151.096094 147.744844,151.096094 141.894375,147.718047 C138.951641,146.019453 137.481641,143.788203 137.488203,141.560781 L137.496406,138.673281 C137.489844,140.90125 138.959844,143.131953 141.902578,144.830547 C147.753594,148.208594 157.207422,148.208594 163.017422,144.831641 C165.905469,143.154375 167.350859,140.958125 167.356875,138.758594" id="Fill-82" fill="#BA2F2B"></path>
            <path d="M162.949063,132.600234 C168.800078,135.978281 168.830703,141.454688 163.017422,144.832734 C157.207422,148.209141 147.753047,148.209141 141.902578,144.831094 C136.05375,141.454688 136.023125,135.978828 141.833672,132.601875 C147.646406,129.223828 157.100234,129.223828 162.949063,132.600234" id="Fill-83" fill="#DE4D31"></path>
            <path d="M97.3836719,125.273203 L97.3754687,128.160703 C97.3694531,130.359688 95.9240625,132.555391 93.0371094,134.233203 C87.2249219,137.610703 77.7749219,137.610703 71.9244531,134.233203 C68.9811719,132.533516 67.510625,130.302813 67.5171875,128.075391 L67.5248438,125.187891 C67.5188281,127.415313 68.9888281,129.646016 71.9326563,131.345156 C77.7836719,134.722656 87.2325781,134.722656 93.0453125,131.345156 C95.9322656,129.668438 97.3776563,127.472734 97.3836719,125.273203" id="Fill-84" fill="#BA2F2B"></path>
            <path d="M92.9769531,119.115938 C98.8274219,122.493984 98.8564063,127.96875 93.0453125,131.345703 C87.2325781,134.723203 77.7825781,134.723203 71.9326563,131.345703 C66.0838281,127.96875 66.0510156,122.493984 71.86375,119.115938 C77.67375,115.739531 87.128125,115.739531 92.9769531,119.115938" id="Fill-85" fill="#DE4D31"></path>
            <path d="M97.2666406,34.0615625 L97.2584375,36.9490625 C97.2524219,39.1480469 95.8070313,41.3442969 92.9189844,43.0226562 C87.1084375,46.3990625 77.6540625,46.3990625 71.8063281,43.0226562 C68.8614063,41.3224219 67.3914063,39.0911719 67.3974219,36.86375 L67.405625,33.97625 C67.3990625,36.2042188 68.8696094,38.4349219 71.8139844,40.1351562 C77.6628125,43.5115625 87.1166406,43.5115625 92.9271875,40.1351562 C95.8152344,38.4573438 97.2600781,36.2610937 97.2666406,34.0615625" id="Fill-86" fill="#BA2F2B"></path>
            <path d="M92.8599219,27.9048438 C98.70875,31.28125 98.7399219,36.7576563 92.9271875,40.1357031 C87.1166406,43.5121094 77.6622656,43.5121094 71.8139844,40.1357031 C65.9635156,36.7582031 65.9323438,31.28125 71.7434375,27.9048438 C77.555625,24.5267969 87.01,24.5267969 92.8599219,27.9048438" id="Fill-87" fill="#DE4D31"></path>
            <path d="M133.571484,62.4733594 L133.563281,65.3608594 C133.557266,67.5592969 132.111875,69.755 129.224922,71.4328125 C123.412734,74.8103125 113.962734,74.8103125 108.112266,71.4328125 C105.168984,69.733125 103.698438,67.5024219 103.705,65.2755469 L103.712656,62.3880469 C103.706641,64.6154688 105.176641,66.8461719 108.120469,68.5453125 C113.971484,71.9228125 123.420391,71.9228125 129.233125,68.5453125 C132.119531,66.8675 133.565469,64.6723437 133.571484,62.4733594" id="Fill-88" fill="#BA2F2B"></path>
            <path d="M129.164219,56.3160938 C135.014688,59.6935937 135.043672,65.1689062 129.233125,68.5453125 C123.420391,71.9228125 113.970937,71.9228125 108.120469,68.5453125 C102.271641,65.1689062 102.239375,59.6935937 108.051563,56.3160938 C113.861563,52.9391406 123.315391,52.9391406 129.164219,56.3160938" id="Fill-89" fill="#DE4D31"></path>
        </g>
    </g>
</svg>