<?xml version="1.0" encoding="UTF-8" standalone="no"?>
<svg width="300px" height="300px" viewBox="0 0 300 300" version="1.1" xmlns="http://www.w3.org/2000/svg" xmlns:xlink="http://www.w3.org/1999/xlink">
    <!-- Generator: Sketch 50.2 (55047) - http://www.bohemiancoding.com/sketch -->
    <title>002-shopping-cart</title>
    <desc>Created with Sketch.</desc>
    <defs></defs>
    <g id="002-shopping-cart" stroke="none" stroke-width="1" fill="none" fill-rule="evenodd">
        <g id="Group" transform="translate(25.000000, 10.000000)">
            <path d="M218.33935,97.0397112 L218.33935,4.11189863 C218.33935,1.84103408 216.497242,0 214.223827,0 L126.425993,0 C124.152578,0 122.310469,1.84103408 122.310469,4.11189863 L122.310469,97.0397112 L218.33935,97.0397112" id="Fill-1" fill="#E57434"></path>
            <path d="M214.094202,0 L197.111913,0 C199.456933,0 201.357061,1.84103408 201.357061,4.11189863 L201.357061,97.0397112 L218.33935,97.0397112 L218.33935,4.11189863 C218.33935,1.84103408 216.439222,0 214.094202,0" id="Fill-2" fill="#D19D7A"></path>
            <g id="Group-8" transform="translate(0.000000, 36.389892)">
                <polyline id="Fill-3" fill="#D7DCDB" points="213.030806 64.3471195 48.100361 64.3471195 75.5933498 179.351461 111.327088 178.080937 193.789562 175.145588 229.523301 173.875064 246.015796 64.3471195 213.030806 64.3471195"></polyline>
                <path d="M66.4125277,123.217842 L101.878538,123.217842 L106.800998,174.130811 L78.820931,175.12642 L66.4125277,123.217842 Z M96.5833479,68.4538698 L101.08415,115.003246 L64.4488213,115.003246 L53.3218849,68.4538698 L96.5833479,68.4538698 Z M148.431353,68.4538698 L148.431353,115.003246 L109.36833,115.003246 L104.867528,68.4538698 L148.431353,68.4538698 Z M234.215416,115.003246 L202.394796,115.003246 L205.85987,68.4538698 L241.225276,68.4538698 L234.215416,115.003246 Z M225.949927,169.890985 L198.236489,170.877284 L201.783475,123.217842 L232.978479,123.217842 L225.949927,169.890985 Z M148.431353,172.649446 L115.056591,173.836729 L110.162718,123.217842 L148.431353,123.217842 L148.431353,172.649446 Z M156.677601,115.003246 L156.677601,68.4538698 L197.591082,68.4538698 L194.126009,115.003246 L156.677601,115.003246 Z M193.514687,123.217842 L189.945712,171.172462 L156.677601,172.356459 L156.677601,123.218389 L193.514687,123.218389 L193.514687,123.217842 Z M81.0875496,183.458211 C81.5735284,183.458211 82.038067,183.370041 82.4712699,183.216154 L229.666786,177.978528 C231.650833,177.907882 233.302281,176.439113 233.596947,174.483491 L250.090542,64.9560949 C250.26866,63.7737407 249.920119,62.5727668 249.137275,61.6664231 C248.354432,60.760627 247.213701,60.239274 246.013047,60.239274 L100.361778,60.239274 C100.35738,60.239274 100.352433,60.239274 100.348584,60.239274 L51.359278,60.239274 L37.7133878,3.15495243 C37.7051416,3.12045113 37.6930471,3.08868802 37.6842511,3.05473436 C37.6617113,2.97039784 37.6380721,2.88660897 37.6105846,2.80446301 C37.5935423,2.75243723 37.5737513,2.70205438 37.5539604,2.65167153 C37.5259231,2.57774016 37.4973361,2.50435644 37.4654506,2.43316328 C37.4390626,2.37511347 37.4110254,2.31815894 37.3829882,2.26175204 C37.3522022,2.20151168 37.3219659,2.14181895 37.2878814,2.0832215 C37.2526974,2.02024293 37.2147647,1.95945492 37.1762822,1.89921455 C37.1443967,1.84992698 37.1125112,1.8006394 37.0789765,1.75299474 C37.0344468,1.69001618 36.9882678,1.62922817 36.9409893,1.56953544 C36.9063551,1.5262719 36.8722706,1.483556 36.8370866,1.44193538 C36.7865096,1.38388557 36.7348331,1.32747868 36.6820571,1.27216707 C36.6430249,1.23109409 36.6034429,1.19111639 36.5627614,1.15223397 C36.5099854,1.10185112 36.4561099,1.05311118 36.4005852,1.00546653 C36.3544062,0.965488827 36.3071277,0.926058767 36.2592995,0.888271626 C36.2059738,0.846651008 36.1520983,0.806673308 36.0971233,0.767790888 C36.0426981,0.728908468 35.9877231,0.690573687 35.9310989,0.654429466 C35.8783229,0.620475803 35.8249971,0.588712699 35.7705719,0.557497235 C35.7095497,0.522448293 35.647428,0.487946991 35.5847565,0.455636247 C35.5297815,0.427706622 35.4748065,0.401419915 35.418732,0.375680848 C35.354961,0.346108303 35.2906403,0.318178678 35.2246703,0.291891971 C35.1647476,0.267795823 35.1031756,0.246437874 35.0416036,0.225079925 C34.9794819,0.204269616 34.9168104,0.182911667 34.8535892,0.164839556 C34.7826715,0.144029246 34.711204,0.127052415 34.6391868,0.110075584 C34.5825625,0.0969322305 34.5270378,0.0837888772 34.4698638,0.0733837225 C34.3874014,0.0580498104 34.3038394,0.0460017365 34.2197277,0.0355965818 C34.1707999,0.0295725449 34.1218722,0.0230008683 34.0723947,0.0186197505 C33.9811362,0.0104051547 33.889328,0.00657167664 33.7975198,0.00492875748 C33.7650846,0.00438111776 33.7337488,0 33.7013136,0 L4.12312369,0 C1.84551017,0 0,1.83897418 0,4.1072979 C0,6.37616926 1.84551017,8.2145958 4.12312369,8.2145958 L30.4456951,8.2145958 L71.0018393,177.8805 C64.7236962,181.404562 60.4724808,188.105482 60.4724808,195.7812 C60.4724808,207.105294 69.7203724,216.31769 81.0880993,216.31769 C81.0913978,216.31769 81.0952461,216.317142 81.0985446,216.317142 L229.519453,216.317142 C231.797066,216.317142 233.642576,214.478168 233.642576,212.209844 C233.642576,209.94152 231.797066,208.102546 229.519453,208.102546 L81.0880993,208.102546 C81.0853506,208.102546 81.0831516,208.103094 81.0809526,208.103094 C74.263505,208.09926 68.7187282,202.573028 68.7187282,195.7812 C68.7187282,188.985539 74.2673532,183.458211 81.0875496,183.458211 Z" id="Fill-5" fill="#98A8B9"></path>
                <path d="M246.015796,64.3471195 L228.138481,64.3471195 C228.138481,64.5497462 228.129135,64.7529205 228.098349,64.9560949 L211.718004,174.508135 L229.523301,173.875064 L246.015796,64.3471195" id="Fill-6" fill="#B9C0C3"></path>
                <path d="M249.137275,61.6664231 C248.354432,60.760627 247.213701,60.239274 246.013047,60.239274 L224.020855,60.239274 C225.221509,60.239274 226.36224,60.760627 227.145083,61.6664231 C227.928477,62.5722192 228.277018,63.7737407 228.098349,64.9560949 L227.575537,68.4538698 L241.225276,68.4538698 L234.215416,115.003246 L220.615155,115.003246 L219.387563,123.217842 L232.979028,123.217842 L225.950477,169.890985 L212.336472,170.375098 L211.605305,175.266068 C211.310639,177.220595 209.517355,178.693745 207.534407,178.766034 L229.667335,177.978528 C231.651383,177.907882 233.302831,176.439113 233.597497,174.483491 L250.091091,64.9560949 C250.26866,63.7737407 249.920119,62.5722192 249.137275,61.6664231" id="Fill-7" fill="#778495"></path>
            </g>
            <path d="M94.5123632,280 C84.7584781,280 76.8231047,272.064627 76.8231047,262.310197 C76.8231047,252.556312 84.7584781,244.620939 94.5123632,244.620939 C104.266793,244.620939 112.202166,252.556312 112.202166,262.310197 C112.202166,272.064627 104.266793,280 94.5123632,280" id="Fill-9" fill="#58656C"></path>
            <path d="M95.5234657,266.859206 C92.4579206,266.859206 89.9638989,264.365184 89.9638989,261.299639 C89.9638989,258.234094 92.4579206,255.740072 95.5234657,255.740072 C98.5895668,255.740072 101.083032,258.234094 101.083032,261.299639 C101.083032,264.36574 98.5895668,266.859206 95.5234657,266.859206" id="Fill-10" fill="#D7DCDB"></path>
            <path d="M198.628159,280 C188.873879,280 180.938628,272.064627 180.938628,262.310197 C180.938628,252.556312 188.873879,244.620939 198.628159,244.620939 C208.382438,244.620939 216.31769,252.556312 216.31769,262.310197 C216.31769,272.064627 208.382438,280 198.628159,280" id="Fill-11" fill="#58656C"></path>
            <path d="M199.638989,266.859206 C196.573444,266.859206 194.079422,264.365184 194.079422,261.299639 C194.079422,258.234094 196.573444,255.740072 199.638989,255.740072 C202.704534,255.740072 205.198556,258.234094 205.198556,261.299639 C205.198556,264.36574 202.704534,266.859206 199.638989,266.859206" id="Fill-12" fill="#D7DCDB"></path>
            <path d="M100.228871,96.0288809 C100.233268,96.0288809 100.238215,96.0288809 100.242063,96.0288809 L145.559567,96.0288809 L145.559567,56.6378829 C145.559567,54.3875586 143.714259,52.5631769 141.436895,52.5631769 L69.9761581,52.5631769 C69.9756084,52.5631769 69.9756084,52.5631769 69.9750587,52.5631769 C69.8332388,52.5631769 69.693068,52.5702397 69.5550959,52.5843654 C69.5232139,52.5876251 69.492981,52.594688 69.4616487,52.598491 C69.3561083,52.6115301 69.2500182,52.6251124 69.1466766,52.6457576 C69.1021517,52.6549936 69.059276,52.668576 69.0153008,52.6788985 C68.9273505,52.700087 68.8394002,52.7191023 68.7530989,52.7457237 C68.6970306,52.7625658 68.643161,52.7853842 68.5876424,52.8049428 C68.5167324,52.8299343 68.4447231,52.8527527 68.3754622,52.8815473 C68.3122479,52.9081687 68.2517821,52.9396797 68.1896671,52.9695609 C68.1319497,52.9972689 68.0725833,53.0217171 68.0170646,53.0515983 C67.9544,53.0852826 67.8944839,53.1243997 67.834018,53.1608004 C67.7817975,53.1923115 67.7284776,53.2211061 67.6773565,53.2547903 C67.6196391,53.2933642 67.5652198,53.3368277 67.5086018,53.3786614 C67.4591298,53.4150621 67.4080086,53.4498329 67.3601856,53.4884068 C67.3063161,53.5318703 67.256844,53.5796802 67.2062726,53.6253169 C67.1600987,53.6671506 67.111726,53.7062678 67.0677508,53.7497313 C67.0193781,53.7969979 66.9759527,53.8486108 66.9297788,53.8980506 C66.8874527,53.9442306 66.8423781,53.989324 66.8017011,54.0376772 C66.7588253,54.0892901 66.720347,54.1441628 66.6791203,54.1974057 C66.6406421,54.247932 66.599965,54.2973718 66.5642352,54.349528 C66.5263066,54.404944 66.4927756,54.4636198 66.4575955,54.5206657 C66.4240644,54.5749951 66.3883346,54.6276946 66.3570023,54.6841972 C66.3240209,54.742873 66.2970861,54.8048085 66.2674029,54.8656574 C66.238819,54.9232466 66.2080364,54.9797492 66.1833004,55.0389683 C66.1558159,55.1014471 66.134378,55.1660991 66.1107414,55.2296645 C66.0882041,55.2905135 66.0629184,55.3497325 66.0436792,55.411668 C66.0222414,55.4779499 66.0073997,55.546405 65.98926,55.6143168 C65.9727693,55.6762523 65.9540799,55.7376445 65.9403376,55.8006666 C65.925496,55.8712949 65.916701,55.9446396 65.9057072,56.0168977 C65.8958128,56.0788332 65.8837196,56.1402255 65.8765736,56.2032476 C65.868878,56.276049 65.8672289,56.3510236 65.8639308,56.4254549 C65.8606326,56.484674 65.8534867,56.5433497 65.852937,56.6036554 L65.7039711,96.0283376 L100.228871,96.0283376 L100.228871,96.0288809" id="Fill-13" fill="#63B5D1"></path>
            <path d="M142.325249,52.5631769 L125.34296,52.5631769 C127.68798,52.5631769 129.588108,54.3875586 129.588108,56.6378829 L129.588108,96.0288809 L146.570397,96.0288809 L146.570397,56.6378829 C146.570397,54.3875586 144.670269,52.5631769 142.325249,52.5631769" id="Fill-14" fill="#8AC5DB"></path>
        </g>
    </g>
</svg>