<?xml version="1.0" encoding="UTF-8" standalone="no"?>
<svg width="300px" height="300px" viewBox="0 0 300 300" version="1.1" xmlns="http://www.w3.org/2000/svg" xmlns:xlink="http://www.w3.org/1999/xlink">
    <!-- Generator: Sketch 50.2 (55047) - http://www.bohemiancoding.com/sketch -->
    <title>012-whisky</title>
    <desc>Created with Sketch.</desc>
    <defs>
        <polygon id="path-1" points="0 0 249.875858 0 249.875858 214.503804 0 214.503804"></polygon>
    </defs>
    <g id="012-whisky" stroke="none" stroke-width="1" fill="none" fill-rule="evenodd">
        <g id="Group" transform="translate(25.000000, 10.000000)">
            <g id="Group-4">
                <mask id="mask-2" fill="white">
                    <use xlink:href="#path-1"></use>
                </mask>
                <g id="Clip-2"></g>
                <path d="M249.836957,8.79256997 L229.253432,214.503804 L20.6229977,214.503804 L0.0389016018,8.79256997 C-0.434210526,4.07952926 3.46453089,0 8.44050343,0 L241.435355,0 C246.411327,0 250.310069,4.07952926 249.836957,8.79256997" id="Fill-1" fill="#778495" mask="url(#mask-2)"></path>
                <path d="M249.836957,8.79256997 L229.253432,214.503804 L47.1470252,214.503804 L26.5629291,8.79256997 C26.0898169,4.07952926 29.9885584,0 34.9645309,0 L241.435355,0 C246.411327,0 250.310069,4.07952926 249.836957,8.79256997" id="Fill-3" fill="#98A8B9" mask="url(#mask-2)"></path>
            </g>
            <path d="M228.624535,214 L228.624535,275.221113 C228.624535,277.307063 226.847501,279 224.650897,279 L24.4191637,279 C22.2231308,279 20.4460967,277.307063 20.4460967,275.221113 L20.4460967,214 L228.624535,214" id="Fill-5" fill="#778495"></path>
            <path d="M68.0818627,178.758952 L26.0972557,125.582762 C24.2696912,123.267956 25.0057846,120.137196 27.7409593,118.59051 L90.9423359,82.8501364 C93.6775107,81.3034506 97.3761685,81.9258638 99.203733,84.2406691 L141.18899,137.41686 C143.016554,139.732215 142.280461,142.862426 139.545286,144.409111 L76.3439094,180.150035 C73.6087347,181.696721 69.9100768,181.073758 68.0818627,178.758952" id="Fill-6" fill="#63B5D1"></path>
            <path d="M161.416811,86.3455247 L186.464933,146.203352 C187.555112,148.809305 185.921469,151.662872 182.8154,152.577519 L111.050785,173.716388 C107.944716,174.631035 104.543513,173.260428 103.453333,170.654475 L78.4052112,110.796648 C77.3143818,108.190695 78.9486757,105.337128 82.0547443,104.421935 L153.818709,83.2836121 C156.924128,82.3689653 160.325982,83.739572 161.416811,86.3455247 Z" id="Fill-7" fill="#B3D9E5"></path>
            <path d="M208.81458,92.3455247 L233.862703,152.203352 C234.952882,154.809305 233.319238,157.662872 230.21317,158.577519 L158.448554,179.716388 C155.342486,180.631035 151.941282,179.260428 150.851103,176.654475 L125.802981,116.796648 C124.712151,114.190695 126.346445,111.337128 129.452514,110.421935 L201.216479,89.2836121 C204.321897,88.3689653 207.723751,89.739572 208.81458,92.3455247" id="Fill-7-Copy" fill="#63B5D1"></path>
            <polyline id="Fill-8" fill="#D19D7A" points="237.918216 125 228.974026 214 20.097179 214 11.1524164 125 237.918216 125"></polyline>
            <path d="M228.624535,276.117707 C228.624535,278.260737 226.847501,280 224.650897,280 L24.4191637,280 C22.2231308,280 20.4460967,278.260737 20.4460967,276.117707 L20.4460967,246 L228.624535,246 L228.624535,276.117707 Z" id="Fill-9" fill="#98A8B9"></path>
            <path d="M42.3775404,172.231703 L37.6421499,125 L11.1524164,125 L20.0752679,214 L228.440451,214 L231.412639,184.33497 L56.3283163,184.33497 C49.1058173,184.33497 43.0660232,179.095184 42.3775404,172.231703" id="Fill-10" fill="#E5743F"></path>
        </g>
    </g>
</svg>